<svg xmlns="http://www.w3.org/2000/svg" style="display: none;">

    <symbol id="icon-error" viewBox="0 0 16 16" fill="none">
        <path fill-rule="evenodd" clip-rule="evenodd"
              d="M0 8C0 12.4112 3.5888 16 8 16C12.4112 16 16 12.4112 16 8C16 3.5888 12.4112 0 8 0C3.5888 0 0 3.5888 0 8ZM4.70506 4.70503C4.97843 4.43166 5.42164 4.43166 5.69501 4.70503L8.00001 7.01004L10.305 4.70502C10.5784 4.43166 11.0216 4.43166 11.295 4.70503C11.5683 4.97839 11.5683 5.42161 11.295 5.69498L8.98995 7.99999L11.295 10.305C11.5683 10.5784 11.5683 11.0216 11.295 11.295C11.0216 11.5683 10.5784 11.5683 10.305 11.295L8.00001 8.98994L5.69497 11.295C5.4216 11.5683 4.97839 11.5683 4.70502 11.295C4.43166 11.0216 4.43166 10.5784 4.70503 10.305L7.01006 7.99999L4.70506 5.69497C4.4317 5.42161 4.4317 4.97839 4.70506 4.70503Z"
              fill="#AA0000"/>
    </symbol>

    <symbol id="icon-success" viewBox="0 0 20 20" fill="none">
        <path fill-rule="evenodd" clip-rule="evenodd"
              d="M10 20C4.486 20 0 15.514 0 10C0 4.486 4.486 0 10 0C15.514 0 20 4.486 20 10C20 15.514 15.514 20 10 20ZM15.2332 6.87697C14.8926 6.54071 14.3406 6.54074 14.0001 6.87703L9.23221 11.5666L6.98858 9.40128C6.64809 9.06498 6.09601 9.06495 5.75548 9.40122C5.41496 9.73748 5.41493 10.2827 5.75542 10.619L8.53076 13.3197C8.92057 13.699 9.54208 13.6972 9.92969 13.3156L15.2332 8.09475C15.5737 7.75845 15.5737 7.21324 15.2332 6.87697Z"
              fill="#008844"/>
    </symbol>


    <symbol id="icon-warning" viewBox="0 0 20 20" fill="none">
        <path fill-rule="evenodd" clip-rule="evenodd"
              d="M10 20C4.486 20 0 15.514 0 10C0 4.486 4.486 0 10 0C15.514 0 20 4.486 20 10C20 15.514 15.514 20 10 20ZM11.25 13.7461C11.25 13.9185 11.218 14.0818 11.1541 14.2359C11.0902 14.39 11.002 14.5232 10.8896 14.6356C10.7771 14.7479 10.6455 14.8367 10.4946 14.902C10.3438 14.9673 10.1789 15 10 15C9.82617 15 9.66258 14.9673 9.5092 14.902C9.35583 14.8367 9.2229 14.7479 9.11043 14.6356C8.99795 14.5232 8.90977 14.39 8.84586 14.2359C8.78195 14.0818 8.75 13.9185 8.75 13.7461C8.75 13.5684 8.78195 13.4039 8.84586 13.2524C8.90977 13.1008 8.99795 12.9689 9.11043 12.8566C9.2229 12.7443 9.35583 12.6567 9.5092 12.594C9.66258 12.5313 9.82617 12.5 10 12.5C10.1789 12.5 10.3438 12.5313 10.4946 12.594C10.6455 12.6567 10.7771 12.7443 10.8896 12.8566C11.002 12.9689 11.0902 13.1008 11.1541 13.2524C11.218 13.4039 11.25 13.5684 11.25 13.7461ZM10.9375 10.3125C10.9375 10.8303 10.5178 11.25 10 11.25C9.48223 11.25 9.0625 10.8303 9.0625 10.3125V4.6875C9.0625 4.16973 9.48223 3.75 10 3.75C10.5178 3.75 10.9375 4.16973 10.9375 4.6875V10.3125Z"
              fill="#FFAA00"/>
    </symbol>

    <symbol id="icon-checked" viewBox="0 0 20 20" fill="none">
        <path fill-rule="evenodd" clip-rule="evenodd"
              d="M5.13295 10.4414C4.95568 10.2534 4.95568 9.94744 5.13295 9.75744L5.77568 9.07444C5.95295 8.88644 6.24113 8.88644 6.4184 9.07444L8.63657 11.4664L13.5811 6.14144C13.7584 5.95344 14.0465 5.95344 14.2238 6.14144L14.8665 6.82544C15.0438 7.01344 15.0438 7.32044 14.8665 7.50744L8.95748 13.8584C8.78021 14.0464 8.49203 14.0464 8.31476 13.8584L5.13295 10.4414Z"
              fill="white"/>
    </symbol>

    <symbol id="icon-indeterminate" viewBox="0 0 20 20" fill="none">
        <path fill-rule="evenodd" clip-rule="evenodd" d="M5.5 9H14.5C14.7761 9 15 9.22386 15 9.5V10.5C15 10.7761 14.7761 11 14.5 11H5.5C5.22386 11 5 10.7761 5 10.5V9.5C5 9.22386 5.22386 9 5.5 9Z"
              fill="white"/>
    </symbol>


</svg>
